<?xml version="1.0" encoding="UTF-8"?>
<svg width="30px" height="24px" viewBox="0 0 30 24" version="1.1" xmlns="http://www.w3.org/2000/svg" xmlns:xlink="http://www.w3.org/1999/xlink">
    <title>Close icon</title>
    <g id="Symbols" stroke="none" stroke-width="1" fill="none" fill-rule="evenodd">
        <g id="lbh-components/burger-menu-closed" transform="translate(-8.000000, -3.000000)" fill="#000000" fill-rule="nonzero">
            <g id="bars-solid-copy" transform="translate(11.000000, 3.000000)">
                <path d="M-1.69536057,13.7881994 L25.5877012,13.7881994 C26.1672695,13.7881994 26.6370497,13.4683015 26.6370497,13.0736431 L26.6370497,11.2872521 C26.6370497,10.8925937 26.1672695,10.5726957 25.5877012,10.5726957 L-1.69536057,10.5726957 C-2.27492888,10.5726957 -2.7447091,10.8925937 -2.7447091,11.2872521 L-2.7447091,13.0736431 C-2.7447091,13.4683015 -2.27492888,13.7881994 -1.69536057,13.7881994 Z" id="Shape" transform="translate(11.946170, 12.180448) rotate(-315.000000) translate(-11.946170, -12.180448) "></path>
                <path d="M-1.71428571,13.6923077 L25.7142857,13.6923077 C26.2969451,13.6923077 26.7692308,13.3555855 26.7692308,12.9401709 L26.7692308,11.0598291 C26.7692308,10.6444145 26.2969451,10.3076923 25.7142857,10.3076923 L-1.71428571,10.3076923 C-2.29694505,10.3076923 -2.76923077,10.6444145 -2.76923077,11.0598291 L-2.76923077,12.9401709 C-2.76923077,13.3555855 -2.29694505,13.6923077 -1.71428571,13.6923077 Z" id="Shape-Copy" transform="translate(12.000000, 12.000000) scale(-1, 1) rotate(-315.000000) translate(-12.000000, -12.000000) "></path>
            </g>
        </g>
    </g>
</svg>
