<?xml version="1.0" encoding="UTF-8"?>
<svg width="31px" height="24px" viewBox="0 0 31 24" version="1.1" xmlns="http://www.w3.org/2000/svg" xmlns:xlink="http://www.w3.org/1999/xlink">
    <!-- Generator: Sketch 55.2 (78181) - https://sketchapp.com -->
    <title>bars-solid</title>
    <desc>Created with Sketch.</desc>
    <g id="Symbols" stroke="none" stroke-width="1" fill="none" fill-rule="evenodd">
        <g id="lbh-components/burger-menu" transform="translate(-4.000000, -5.000000)" fill="#00664F" fill-rule="nonzero">
            <g id="bars-solid" transform="translate(4.000000, 7.000000)">
                <path d="M6,4 L30.1071429,4 C30.600279,4 31,3.60205556 31,3.11111111 L31,0.888888889 C31,0.397944444 30.600279,0 30.1071429,0 L6,0 L6,4 Z M0,0 L4,0 L4,4 L0,4 L0,0 Z M6,12 L30.1062197,12 C30.5998657,12 31,11.6020556 31,11.1111111 L31,8.88888889 C31,8.39794444 30.5998657,8 30.1062197,8 L6,8 L6,12 Z M6,20 L6,16 L30.1059465,16 C30.5997434,16 31,16.3979444 31,16.8888889 L31,19.1111111 C31,19.6020556 30.5997434,20 30.1059465,20 L6,20 Z M0,8 L4,8 L4,12 L0,12 L0,8 Z M0,16 L4,16 L4,20 L0,20 L0,16 Z" id="Shape"></path>
            </g>
        </g>
    </g>
</svg>
